# xmcd
#
# Track frame offsets:
#	150
#	17576
#	35409
#	50413
#	68450
#	85918
#	102086
#	115035
#	131496
#	148693
#	164107
#	180265
#
# Disc length: 2596 seconds
# Revision: 1
# Processed by: cddbd v1.5.2PL0 Copyright (c) Steve Scherf et al.
# Submitted via: dBpowerAMP V12.0
#
DISCID=950a220c
DTITLE=Betsy Jill Jackson - Love Is…
DYEAR=2013
DGENRE=Country
TTITLE0=Love Is As Love Does
TTITLE1=Baby Me Baby
TTITLE2=Wild Bird
TTITLE3=I Can Walk Away
TTITLE4=Mama Didn't Raise No Fool
TTITLE5=I Get By
TTITLE6=Speak Of The Devil
TTITLE7=Going For The Gold
TTITLE8=Empty Cup
TTITLE9=You Never Met A Man You Didn't Love
TTITLE10=Hopeful Heart
TTITLE11=Because I Can
EXTD=
EXTT0=
EXTT1=
EXTT2=
EXTT3=
EXTT4=
EXTT5=
EXTT6=
EXTT7=
EXTT8=
EXTT9=
EXTT10=
EXTT11=
PLAYORDER=
